<svg 
    width="36" 
    height="20.608" 
    viewBox="0 0 36 20.608" 
    xmlns="http://www.w3.org/2000/svg">
    <g 
        id="svgGroup" 
        stroke-linecap="round" 
        fill-rule="evenodd" 
        font-size="9pt" 
        stroke="#F00A64" 
        stroke-width="0.25mm"
        fill="#F00A64">
        <path
            d="M 28.9 20.6 L 5.7 20.6 A 16.733 16.733 0 0 1 5.182 20.608 Q 3.406 20.609 2.167 20.207 A 4.872 4.872 0 0 1 0.9 19.6 A 1.848 1.848 0 0 1 0.359 18.78 Q 0.255 18.478 0.219 18.107 A 4.231 4.231 0 0 1 0.2 17.7 L 0.2 10.3 L 0.2 7.95 A 4.907 4.907 0 0 0 0.191 7.645 Q 0.173 7.347 0.115 7.147 A 1.237 1.237 0 0 0 0.1 7.1 L 0 3 Q 0 2.255 0.617 1.509 A 4.477 4.477 0 0 1 0.9 1.2 A 4.057 4.057 0 0 1 1.448 0.735 Q 2.074 0.3 2.7 0.3 L 5.35 0.3 Q 6.475 0.3 7.169 0.204 A 6.262 6.262 0 0 0 7.2 0.2 Q 8.5 0.1 9.6 0.05 Q 10.7 0 11.7 0 L 20.9 0 Q 21.9 0 23.05 0.05 Q 24.2 0.1 25.5 0.2 Q 26.007 0.272 26.699 0.292 A 19.148 19.148 0 0 0 27.25 0.3 L 29.8 0.3 Q 32.7 0.3 34.35 1 Q 35.367 1.432 35.757 2.129 A 1.955 1.955 0 0 1 36 3.1 A 98.121 98.121 0 0 1 35.962 5.802 A 108.098 108.098 0 0 1 35.95 6.2 A 118.756 118.756 0 0 1 35.824 9.077 A 130.218 130.218 0 0 1 35.8 9.5 L 35.8 11.3 Q 35.8 11.684 35.741 11.891 A 0.63 0.63 0 0 1 35.7 12 L 35.7 14.8 Q 35.7 17.051 35.218 18.217 A 2.814 2.814 0 0 1 34.9 18.8 Q 34.13 20.084 31.456 20.269 A 13.861 13.861 0 0 1 30.5 20.3 L 29.8 20.5 Q 29.626 20.587 29.072 20.598 A 8.503 8.503 0 0 1 28.9 20.6 Z"
            vector-effect="non-scaling-stroke" />
    </g>
</svg>