<?xml version="1.0" encoding="iso-8859-1"?>
<!-- Uploaded to: SVG Repo, www.svgrepo.com, Generator: SVG Repo Mixer Tools -->
<svg version="1.1" id="Layer_1" xmlns="http://www.w3.org/2000/svg" xmlns:xlink="http://www.w3.org/1999/xlink" 
	 viewBox="0 0 512 512" xml:space="preserve">
<path style="fill:#D8D9DD;" d="M142.914,251.177c-24.513-29.5-43.924-70.283-54.656-114.835
	c-9.713-40.327-11.006-79.165-3.459-103.89c6.458-21.155,18.157-28.625,26.836-31.166c8.006-2.345,20.817-2.63,36.388,9.322
	c36.355,27.906,75.545,115.342,73.652,196.191L142.914,251.177z"/>
<path style="fill:#D37B93;" d="M167.024,231.142C118.616,172.89,103.522,78.484,114.78,41.604
	c2.387-7.819,5.075-10.062,5.665-10.235c0.48-0.143,3.332,0.146,8.491,4.104c26.192,20.105,63.133,96.556,61.401,170.59
	L167.024,231.142z"/>
<path style="fill:#A0A1A5;" d="M369.093,251.177c24.512-29.5,43.924-70.283,54.655-114.835c9.713-40.327,11.006-79.165,3.459-103.89
	c-6.458-21.155-18.157-28.625-26.836-31.166c-8.006-2.345-20.817-2.63-36.388,9.323c-36.355,27.906-75.545,115.342-73.653,196.191
	L369.093,251.177"/>
<path style="fill:#9D5B6E;" d="M344.983,231.142c48.407-58.251,63.501-152.658,52.243-189.538
	c-2.387-7.82-5.076-10.062-5.665-10.235c-0.48-0.143-3.332,0.145-8.491,4.104c-26.192,20.105-63.133,96.556-61.401,170.59
	L344.983,231.142"/>
<path style="fill:#D8D9DD;" d="M256.003,512c-45.758,0-87.614-13.735-117.863-38.675c-32.968-27.183-50.393-65.158-50.393-109.822
	c0-44.495,17.729-89.991,48.641-124.82c32.653-36.791,75.133-57.053,119.615-57.053c44.483,0,86.962,20.262,119.616,57.053
	c30.913,34.829,48.641,80.324,48.641,124.82c0,44.663-17.426,82.639-50.394,109.822C343.618,498.265,301.76,512,256.003,512"/>
<g>
	
		<rect x="37.449" y="339.997" transform="matrix(-0.9741 -0.2262 0.2262 -0.9741 133.7229 726.6649)" style="fill:#87868A;" width="142.089" height="31.348"/>
	
		<rect x="92.826" y="367.832" transform="matrix(-0.2262 -0.9741 0.9741 -0.2262 -294.4592 643.8359)" style="fill:#87868A;" width="31.348" height="142.089"/>
</g>
<g>
	<path style="fill:#333333;" d="M183.274,297.794c0-11.513,9.229-20.837,20.569-20.837c11.355,0,20.583,9.324,20.583,20.837
		c0,11.511-9.227,20.843-20.583,20.843C192.503,318.637,183.274,309.305,183.274,297.794z"/>
	<path style="fill:#333333;" d="M328.74,297.794c0-11.597-9.288-20.998-20.725-20.998c-11.45,0-20.738,9.4-20.738,20.998
		c0,11.597,9.288,20.998,20.738,20.998C319.452,318.793,328.74,309.392,328.74,297.794"/>
</g>
<g>
	<path style="fill:#D37B93;" d="M240.331,511.447c5.165,0.362,10.391,0.553,15.672,0.553c5.282,0,10.51-0.191,15.676-0.554v-82.742
		h-31.347V511.447"/>
	<path style="fill:#D37B93;" d="M256.005,433.453c-18.748,0-41.79-23.14-41.79-41.967c0-10.899,5.441-19.192,15.323-23.348
		c6.172-2.597,13.841-3.656,26.469-3.656c12.627,0,20.294,1.06,26.467,3.656c9.881,4.157,15.323,12.449,15.323,23.348
		C297.794,410.313,274.751,433.453,256.005,433.453"/>
</g>
<path style="fill:#BDBDBF;" d="M256.061,512c-0.019,0-0.038,0-0.056,0l0,0C256.025,512,256.042,512,256.061,512 M371.901,474.917
	c-30.026,23.887-70.968,37.034-115.645,37.083h-0.001C300.931,511.951,341.874,498.804,371.901,474.917 M374.052,473.171
	c-0.063,0.051-0.124,0.102-0.186,0.154C373.929,473.274,373.99,473.223,374.052,473.171 M374.235,473.02
	c-0.039,0.031-0.079,0.066-0.117,0.097C374.157,473.085,374.196,473.052,374.235,473.02 M374.415,472.87
	c-0.026,0.022-0.054,0.045-0.079,0.067C374.361,472.914,374.389,472.892,374.415,472.87 M374.589,472.725
	c-0.016,0.014-0.032,0.027-0.048,0.041C374.557,472.751,374.573,472.739,374.589,472.725 M374.757,472.584
	c-0.002,0.002-0.004,0.004-0.006,0.005C374.753,472.588,374.755,472.586,374.757,472.584 M257.38,181.636c0.003,0,0.006,0,0.009,0
	C257.385,181.636,257.383,181.636,257.38,181.636 M257.096,181.634c0.014,0,0.026,0,0.04,0
	C257.123,181.634,257.109,181.634,257.096,181.634 M256.817,181.632c0.022,0,0.047,0,0.069,0
	C256.863,181.633,256.84,181.632,256.817,181.632 M256.542,181.631c0.03,0,0.059,0,0.088,0
	C256.6,181.631,256.571,181.631,256.542,181.631 M256.27,181.63c0.032,0,0.067,0,0.099,0
	C256.337,181.631,256.304,181.63,256.27,181.63 M256.005,181.63L256.005,181.63c0.012,0,0.022,0,0.036,0
	C256.029,181.63,256.016,181.63,256.005,181.63 M423.012,139.337c0,0.003-0.001,0.004-0.002,0.007
	C423.01,139.342,423.011,139.339,423.012,139.337 M423.073,139.092c-0.002,0.008-0.005,0.022-0.007,0.029
	C423.069,139.112,423.071,139.101,423.073,139.092 M423.357,137.949c-0.005,0.022-0.01,0.042-0.016,0.064
	C423.346,137.992,423.352,137.967,423.357,137.949 M423.418,137.7c-0.007,0.03-0.016,0.064-0.023,0.094
	C423.403,137.762,423.41,137.73,423.418,137.7 M423.477,137.458c-0.007,0.03-0.015,0.062-0.022,0.091
	C423.462,137.521,423.47,137.488,423.477,137.458 M423.54,137.2c-0.009,0.038-0.019,0.076-0.028,0.115
	C423.521,137.277,423.53,137.239,423.54,137.2 M423.602,136.947c-0.01,0.044-0.021,0.084-0.031,0.127
	C423.581,137.033,423.592,136.987,423.602,136.947 M423.665,136.683c-0.011,0.049-0.025,0.101-0.037,0.15
	C423.641,136.783,423.654,136.733,423.665,136.683 M423.748,136.341c-0.02,0.082-0.039,0.162-0.059,0.243
	C423.709,136.502,423.728,136.423,423.748,136.341 M359.885,13.991l-0.003,0.003C359.884,13.992,359.883,13.993,359.885,13.991
	 M359.984,13.904c-0.002,0.002-0.004,0.003-0.005,0.005C359.981,13.907,359.982,13.906,359.984,13.904 M360.082,13.819l-0.003,0.003
	L360.082,13.819 M360.185,13.728c-0.004,0.003-0.007,0.006-0.011,0.01C360.178,13.734,360.181,13.732,360.185,13.728
	 M360.279,13.645c-0.002,0.002-0.002,0.002-0.004,0.004C360.276,13.649,360.276,13.648,360.279,13.645 M360.764,13.225l-0.003,0.003
	L360.764,13.225 M360.862,13.141c-0.002,0.002-0.004,0.003-0.006,0.005C360.859,13.144,360.86,13.143,360.862,13.141
	 M360.968,13.051c-0.008,0.007-0.018,0.016-0.026,0.022C360.951,13.066,360.959,13.058,360.968,13.051 M361.069,12.964
	c-0.01,0.008-0.022,0.019-0.031,0.027C361.049,12.982,361.059,12.974,361.069,12.964 M361.17,12.878
	c-0.013,0.01-0.02,0.017-0.032,0.027C361.147,12.898,361.162,12.886,361.17,12.878 M361.272,12.793
	c-0.01,0.008-0.022,0.019-0.032,0.027C361.249,12.813,361.262,12.8,361.272,12.793 M361.378,12.703
	c-0.015,0.011-0.026,0.022-0.041,0.033C361.351,12.726,361.365,12.714,361.378,12.703 M361.478,12.619
	c-0.013,0.01-0.027,0.023-0.04,0.033C361.452,12.641,361.465,12.631,361.478,12.619 M361.569,12.543
	c-0.01,0.008-0.017,0.014-0.027,0.023C361.551,12.559,361.559,12.55,361.569,12.543 M361.84,12.316
	c-0.01,0.008-0.025,0.021-0.036,0.029C361.819,12.335,361.827,12.328,361.84,12.316 M361.944,12.232
	c-0.016,0.014-0.032,0.026-0.048,0.04C361.91,12.259,361.928,12.244,361.944,12.232 M362.044,12.149
	c-0.015,0.011-0.029,0.024-0.044,0.036C362.014,12.174,362.03,12.16,362.044,12.149 M362.149,12.063
	c-0.016,0.014-0.032,0.027-0.049,0.04C362.117,12.089,362.131,12.078,362.149,12.063 M362.251,11.979
	c-0.016,0.014-0.034,0.028-0.05,0.042C362.216,12.007,362.235,11.991,362.251,11.979 M362.352,11.896
	c-0.017,0.014-0.036,0.029-0.052,0.042C362.316,11.926,362.338,11.909,362.352,11.896 M362.452,11.816
	c-0.017,0.014-0.027,0.022-0.044,0.036C362.421,11.841,362.438,11.826,362.452,11.816 M362.555,11.731
	c-0.017,0.014-0.032,0.026-0.048,0.039C362.523,11.757,362.54,11.744,362.555,11.731 M362.663,11.644
	c-0.016,0.014-0.037,0.029-0.052,0.042C362.628,11.673,362.645,11.659,362.663,11.644 M362.763,11.564
	c-0.019,0.015-0.036,0.028-0.053,0.043C362.727,11.592,362.745,11.579,362.763,11.564 M362.913,11.444
	c-0.021,0.017-0.042,0.033-0.063,0.05C362.874,11.476,362.891,11.462,362.913,11.444 M363.014,11.363
	c-0.02,0.016-0.042,0.033-0.062,0.049C362.974,11.396,362.992,11.381,363.014,11.363 M363.118,11.281
	c-0.019,0.015-0.039,0.031-0.057,0.046C363.078,11.312,363.1,11.295,363.118,11.281 M363.216,11.202
	c-0.016,0.013-0.034,0.028-0.051,0.041C363.183,11.23,363.199,11.217,363.216,11.202 M363.321,11.121
	c-0.016,0.013-0.034,0.027-0.051,0.04C363.289,11.147,363.303,11.135,363.321,11.121 M363.424,11.04
	c-0.017,0.013-0.037,0.029-0.053,0.042C363.389,11.068,363.406,11.054,363.424,11.04 M363.53,10.957
	c-0.02,0.016-0.039,0.03-0.059,0.046C363.491,10.987,363.51,10.973,363.53,10.957 M363.631,10.879
	c-0.018,0.015-0.04,0.03-0.057,0.045C363.59,10.909,363.613,10.892,363.631,10.879 M363.74,10.794
	c-0.021,0.016-0.044,0.033-0.064,0.049C363.698,10.826,363.717,10.812,363.74,10.794 M363.854,10.706
	c-0.026,0.02-0.049,0.039-0.076,0.059C363.805,10.744,363.827,10.726,363.854,10.706 M391.323,0
	c-7.401,0-16.729,2.462-27.342,10.607c-0.034,0.026-0.069,0.053-0.103,0.079c0.036-0.027,0.068-0.052,0.103-0.079
	C374.594,2.462,383.923,0,391.323,0c3.459,0,6.496,0.538,9.046,1.284c8.679,2.542,20.379,10.012,26.836,31.166
	c3.258,10.673,4.869,23.974,4.866,38.89c0.002-14.916-1.608-28.218-4.866-38.89c-6.458-21.155-18.157-28.625-26.836-31.166
	C397.821,0.538,394.782,0,391.323,0"/>
<path style="fill:#A0A1A5;" d="M308.015,318.793c-11.45,0-20.738-9.401-20.738-20.998c0-11.597,9.288-20.998,20.738-20.998
	c11.436,0,20.725,9.4,20.725,20.998C328.74,309.392,319.452,318.793,308.015,318.793 M256.005,181.63v182.851
	c12.627,0,20.294,1.06,26.467,3.656c9.881,4.157,15.323,12.449,15.323,23.348c0,13.714-12.229,29.718-26.115,37.398v82.562
	c-5.085,0.356-10.227,0.548-15.423,0.553c44.677-0.049,85.619-13.196,115.645-37.083c0.66-0.526,1.316-1.056,1.965-1.591l0,0
	c0.063-0.051,0.124-0.102,0.186-0.154c0.022-0.018,0.044-0.037,0.066-0.054c0.038-0.031,0.079-0.066,0.117-0.097
	c0.033-0.028,0.067-0.055,0.1-0.084c0.026-0.022,0.054-0.045,0.079-0.067c0.042-0.036,0.084-0.07,0.126-0.106
	c0.016-0.014,0.032-0.027,0.048-0.041c0.054-0.045,0.108-0.09,0.161-0.135c0.002-0.002,0.005-0.004,0.006-0.005
	c7.257-6.079,13.738-12.697,19.442-19.792l-63.441-14.732l7.09-30.535l73.725,17.12l0,0l-0.005-0.001
	c7.947-17.438,12.225-36.817,12.649-57.704l-86.37,20.056l-7.09-30.535l91.173-21.171l0,0l-0.008,0.002
	c-5.613-34.209-21.182-67.543-44.627-94.678c0.002-0.003,0.004-0.006,0.007-0.01c-0.557-0.645-1.118-1.285-1.683-1.923
	c-6.607-7.444-13.614-14.21-20.961-20.27c-10.389-8.569-21.456-15.726-33.012-21.378c-9.979-4.881-20.319-8.639-30.913-11.222
	c0,0.004-0.001,0.01-0.001,0.015c-10.895-2.657-22.052-4.083-33.344-4.191c-0.003,0-0.006,0-0.009,0
	c-0.082-0.001-0.163-0.001-0.243-0.002c-0.014,0-0.026,0-0.04,0c-0.07-0.001-0.14-0.001-0.21-0.001c-0.022,0-0.047,0-0.069,0
	c-0.063,0-0.123-0.001-0.186-0.001c-0.03,0-0.059,0-0.088,0c-0.057,0-0.115,0-0.172,0c-0.032,0-0.067,0-0.099,0
	c-0.076,0-0.154,0-0.231,0c-0.014,0-0.024,0-0.038,0"/>
<g>
	<polyline style="fill:#646467;" points="469.166,324.323 421.931,335.292 330.757,356.463 337.847,386.998 424.217,366.942 
		424.217,366.942 476.255,354.859 469.166,324.323 	"/>
	<polyline style="fill:#646467;" points="337.847,407.526 330.757,438.061 394.198,452.794 394.199,452.792 469.166,470.202 
		476.255,439.666 411.573,424.647 337.847,407.526 	"/>
</g>
<path style="fill:#9D5B6E;" d="M282.472,368.138c-6.173-2.598-13.841-3.656-26.467-3.656v68.971V512c0.019,0,0.038,0,0.056,0
	c0.064,0,0.129,0,0.192,0h0.001c5.196-0.006,10.339-0.197,15.423-0.553v-82.562c13.887-7.68,26.115-23.684,26.115-37.398
	C297.794,380.587,292.353,372.295,282.472,368.138z"/>
</svg>